<?xml version="1.0" encoding="UTF-8"?>
<svg version="1.1" xmlns="http://www.w3.org/2000/svg" width="400" height="409">
<path d="M0 0 C1.29050766 0.00273422 1.29050766 0.00273422 2.60708618 0.00552368 C15.24095334 0.05058854 27.44897817 0.51113109 39.8125 3.3125 C40.60462891 3.47878906 41.39675781 3.64507812 42.21289062 3.81640625 C75.91682345 10.95370967 107.24498793 26.88849128 132.55078125 50.23828125 C134.59574667 52.11371586 136.68869475 53.90282533 138.8125 55.6875 C153.20059727 68.3202494 164.62880164 84.61092292 173.8125 101.3125 C174.32224365 102.2391748 174.32224365 102.2391748 174.84228516 103.18457031 C190.72506178 132.51947386 198.4938613 164.29229114 198.25 197.5625 C198.24543793 198.89613586 198.24543793 198.89613586 198.24078369 200.25671387 C198.16864587 214.57975931 197.27170614 228.35881039 193.8125 242.3125 C193.58755859 243.22854004 193.36261719 244.14458008 193.13085938 245.08837891 C182.49243843 287.19513178 158.9083363 325.25723249 124.8125 352.3125 C123.79929687 353.13105469 122.78609375 353.94960938 121.7421875 354.79296875 C101.22668816 371.16784181 77.1248977 382.4624867 51.9375 389.5625 C51.12587402 389.79662598 50.31424805 390.03075195 49.47802734 390.27197266 C33.41299258 394.59252856 17.13261773 395.87145432 0.5625 395.75 C-0.32659058 395.74695862 -1.21568115 395.74391724 -2.13171387 395.74078369 C-16.46610156 395.66858874 -30.21682003 394.73389101 -44.1875 391.3125 C-45.05568359 391.10882813 -45.92386719 390.90515625 -46.81835938 390.6953125 C-89.00756224 380.56239795 -127.23701483 356.27628654 -154.1875 322.3125 C-155.00605469 321.29929687 -155.82460937 320.28609375 -156.66796875 319.2421875 C-184.0303757 284.96079554 -197.69187739 241.71796546 -197.5 198.125 C-197.49817719 197.26466156 -197.49635437 196.40432312 -197.49447632 195.51791382 C-197.44941146 182.88404666 -196.98886891 170.67602183 -194.1875 158.3125 C-194.02121094 157.52037109 -193.85492188 156.72824219 -193.68359375 155.91210938 C-184.33816818 111.78093306 -159.50916524 71.34047073 -124.1875 43.3125 C-123.17429687 42.49394531 -122.16109375 41.67539062 -121.1171875 40.83203125 C-86.83579554 13.4696243 -43.59296546 -0.19187739 0 0 Z " fill="#FDFDFD" transform="translate(202.1875,4.6875)"/>
<path d="M0 0 C17.16 0 34.32 0 52 0 C52 17.49 52 34.98 52 53 C123.28 53 194.56 53 268 53 C268 35.51 268 18.02 268 0 C286.15 0 304.3 0 323 0 C319.61780415 13.52878338 319.61780415 13.52878338 317.8359375 17.859375 C317.44100098 18.82166016 317.04606445 19.78394531 316.63916016 20.77539062 C316.2219873 21.75701172 315.80481445 22.73863281 315.375 23.75 C314.71250244 25.31524414 314.71250244 25.31524414 314.03662109 26.91210938 C303.62168655 51.073267 287.81380328 73.59144829 267 90 C266.18144531 90.66773438 265.36289062 91.33546875 264.51953125 92.0234375 C248.62527164 104.51961402 230.80007955 112.8230875 212 120 C210.79859375 120.4640625 209.5971875 120.928125 208.359375 121.40625 C169.81299236 134.72594243 123.77610827 127.92745298 87.93676758 110.63378906 C73.7590993 103.50056036 61.31779725 95.10525645 50 84 C48.63419512 82.822582 47.26007562 81.65468681 45.875 80.5 C22.74379594 60.28409232 6.59428113 29.6742651 0 0 Z " fill="#663693" transform="translate(41,241)"/>
<path d="M0 0 C1.01048552 0.92049734 2.02090148 1.84107104 3.03125 2.76171875 C4.10332343 3.71449133 5.17624777 4.66630728 6.25 5.6171875 C11.90915474 10.66749525 17.28824745 15.8247502 22.03125 21.76171875 C22.70285156 22.58414063 23.37445313 23.4065625 24.06640625 24.25390625 C37.59738513 41.48382997 56.03125 69.98791808 56.03125 92.76171875 C37.55125 92.76171875 19.07125 92.76171875 0.03125 92.76171875 C0.03125 76.26171875 0.03125 59.76171875 0.03125 42.76171875 C-8.321875 43.07109375 -8.321875 43.07109375 -16.84375 43.38671875 C-30.66857553 43.5612886 -40.32110261 42.80015071 -51.66845703 34.36230469 C-56.38693594 31.07910073 -61.5482993 28.50212608 -66.59375 25.76171875 C-77.38470689 19.75444902 -88.00323731 13.51742464 -98.20703125 6.55078125 C-101.55468312 4.3821468 -104.22984997 3.56740265 -108.15625 3.38671875 C-108.87167969 3.33773437 -109.58710938 3.28875 -110.32421875 3.23828125 C-113.68524873 3.90353682 -115.87306029 5.40539362 -118.71313477 7.27734375 C-121.08149559 8.83591435 -123.49165333 10.29521083 -125.9296875 11.7421875 C-126.80391357 12.26119629 -127.67813965 12.78020508 -128.57885742 13.31494141 C-129.49127197 13.85425293 -130.40368652 14.39356445 -131.34375 14.94921875 C-132.30837158 15.51946777 -133.27299316 16.0897168 -134.2668457 16.67724609 C-140.91061615 20.58830826 -147.57661637 24.45817069 -154.38867188 28.07055664 C-158.17164065 30.0961388 -161.64033241 32.20341266 -165.04296875 34.82421875 C-180.81359043 46.37368719 -197.00538611 43.53717229 -215.96875 42.76171875 C-215.96875 59.26171875 -215.96875 75.76171875 -215.96875 92.76171875 C-233.45875 92.76171875 -250.94875 92.76171875 -268.96875 92.76171875 C-267.61546398 85.99528867 -266.23985418 79.99957914 -263.84375 73.63671875 C-263.53880615 72.82050049 -263.2338623 72.00428223 -262.91967773 71.16333008 C-259.81927004 63.06358379 -256.07134732 55.39366828 -251.96875 47.76171875 C-251.65325195 47.16020996 -251.33775391 46.55870117 -251.01269531 45.93896484 C-230.48675524 6.93967871 -193.18636388 -19.85695482 -151.75244141 -32.93798828 C-100.71475051 -48.09449042 -39.84018248 -35.65985397 0 0 Z " fill="#663793" transform="translate(308.96875,75.23828125)"/>
<path d="M0 0 C1.29050766 0.00273422 1.29050766 0.00273422 2.60708618 0.00552368 C15.24095334 0.05058854 27.44897817 0.51113109 39.8125 3.3125 C40.60462891 3.47878906 41.39675781 3.64507812 42.21289062 3.81640625 C75.91682345 10.95370967 107.24498793 26.88849128 132.55078125 50.23828125 C134.59574667 52.11371586 136.68869475 53.90282533 138.8125 55.6875 C153.20059727 68.3202494 164.62880164 84.61092292 173.8125 101.3125 C174.32224365 102.2391748 174.32224365 102.2391748 174.84228516 103.18457031 C190.72506178 132.51947386 198.4938613 164.29229114 198.25 197.5625 C198.24543793 198.89613586 198.24543793 198.89613586 198.24078369 200.25671387 C198.16864587 214.57975931 197.27170614 228.35881039 193.8125 242.3125 C193.58755859 243.22854004 193.36261719 244.14458008 193.13085938 245.08837891 C182.49243843 287.19513178 158.9083363 325.25723249 124.8125 352.3125 C123.79929687 353.13105469 122.78609375 353.94960938 121.7421875 354.79296875 C101.22668816 371.16784181 77.1248977 382.4624867 51.9375 389.5625 C51.12587402 389.79662598 50.31424805 390.03075195 49.47802734 390.27197266 C33.41299258 394.59252856 17.13261773 395.87145432 0.5625 395.75 C-0.32659058 395.74695862 -1.21568115 395.74391724 -2.13171387 395.74078369 C-16.46610156 395.66858874 -30.21682003 394.73389101 -44.1875 391.3125 C-45.05568359 391.10882813 -45.92386719 390.90515625 -46.81835938 390.6953125 C-89.00756224 380.56239795 -127.23701483 356.27628654 -154.1875 322.3125 C-155.00605469 321.29929687 -155.82460937 320.28609375 -156.66796875 319.2421875 C-184.0303757 284.96079554 -197.69187739 241.71796546 -197.5 198.125 C-197.49817719 197.26466156 -197.49635437 196.40432312 -197.49447632 195.51791382 C-197.44941146 182.88404666 -196.98886891 170.67602183 -194.1875 158.3125 C-194.02121094 157.52037109 -193.85492188 156.72824219 -193.68359375 155.91210938 C-184.33816818 111.78093306 -159.50916524 71.34047073 -124.1875 43.3125 C-123.17429687 42.49394531 -122.16109375 41.67539062 -121.1171875 40.83203125 C-86.83579554 13.4696243 -43.59296546 -0.19187739 0 0 Z M-59.1875 19.3125 C-59.88746094 19.53776367 -60.58742188 19.76302734 -61.30859375 19.99511719 C-77.94761598 25.41982765 -94.11760319 33.92664302 -108.1875 44.3125 C-108.71827148 44.7034082 -109.24904297 45.09431641 -109.79589844 45.49707031 C-149.09169195 74.70309762 -177.3891872 117.56013389 -185.1875 166.3125 C-185.39246094 167.529375 -185.59742188 168.74625 -185.80859375 170 C-192.69171982 217.84959362 -181.39288716 268.614882 -152.3125 307.5625 C-150.30536038 310.17441235 -148.25717342 312.74995243 -146.1875 315.3125 C-145.45660156 316.22491455 -145.45660156 316.22491455 -144.7109375 317.15576172 C-120.41389927 347.24283614 -87.15930464 368.29692807 -50.1875 379.3125 C-49.24390625 379.59738281 -48.3003125 379.88226563 -47.328125 380.17578125 C-44.29599658 381.01090136 -41.27021763 381.68748165 -38.1875 382.3125 C-37.51702637 382.44930176 -36.84655273 382.58610352 -36.15576172 382.72705078 C-7.39780572 388.33204023 24.88036403 387.28134504 52.8125 378.3125 C53.56176758 378.07547363 54.31103516 377.83844727 55.08300781 377.59423828 C74.4821674 371.3713504 92.13689461 363.04560448 108.8125 351.3125 C109.38661621 350.90950684 109.96073242 350.50651367 110.55224609 350.09130859 C124.22106746 340.35333713 136.6541253 328.66460614 146.8125 315.3125 C147.59625 314.35601562 148.38 313.39953125 149.1875 312.4140625 C166.44117745 291.00871891 179.58349107 263.39129624 184.8125 236.3125 C184.94785156 235.62317383 185.08320313 234.93384766 185.22265625 234.22363281 C194.25372667 186.11894465 184.56624228 136.18445129 157.9375 95.125 C151.29134205 85.51625488 144.04376469 76.46300492 136.125 67.875 C135.35990112 67.04282959 135.35990112 67.04282959 134.5793457 66.19384766 C109.0727061 39.03728167 72.57077725 19.36490569 35.8125 13.3125 C34.68972656 13.11914062 33.56695312 12.92578125 32.41015625 12.7265625 C1.60113222 7.67109839 -29.54930504 9.47845785 -59.1875 19.3125 Z " fill="#604C74" transform="translate(202.1875,4.6875)"/>
<path d="M0 0 C66.66 0 133.32 0 202 0 C202 15.18 202 30.36 202 46 C135.34 46 68.68 46 0 46 C0 30.82 0 15.64 0 0 Z " fill="#673793" transform="translate(100,241)"/>
<path d="M0 0 C66.66 0 133.32 0 202 0 C202 5.94 202 11.88 202 18 C135.34 18 68.68 18 0 18 C0 12.06 0 6.12 0 0 Z " fill="#673793" transform="translate(100,150)"/>
<path d="M0 0 C66.66 0 133.32 0 202 0 C202 5.94 202 11.88 202 18 C135.34 18 68.68 18 0 18 C0 12.06 0 6.12 0 0 Z " fill="#683994" transform="translate(100,125)"/>
<path d="M0 0 C0.34611328 1.12148437 0.34611328 1.12148437 0.69921875 2.265625 C2.92473341 8.98615148 4.60608392 12.52161345 10.890625 16.06640625 C15.17260804 17.96158023 19.79867673 17.6809014 24.22265625 16.3125 C29.00366381 14.16774895 31.57391568 11.75885771 34 7 C34.81449111 4.67355126 35.42323913 2.40317028 36 0 C41.91788927 1.61130648 46.87158142 4.61867132 52.125 7.6875 C53.0533667 8.22479736 53.9817334 8.76209473 54.93823242 9.31567383 C56.7825768 10.38394305 58.62562988 11.45444527 60.46728516 12.52734375 C62.6538582 13.79873459 64.84593422 15.05931377 67.04296875 16.3125 C68.66138672 17.240625 68.66138672 17.240625 70.3125 18.1875 C71.23675781 18.71730469 72.16101563 19.24710938 73.11328125 19.79296875 C73.73589844 20.19128906 74.35851562 20.58960937 75 21 C75 21.33 75 21.66 75 22 C37.38 22 -0.24 22 -39 22 C-36.07265083 19.07265083 -33.6486214 17.5415138 -30.046875 15.56640625 C-29.46842834 15.24719711 -28.88998169 14.92798798 -28.29400635 14.59910583 C-26.44862134 13.58205728 -24.59946359 12.57210939 -22.75 11.5625 C-20.91932713 10.55686131 -19.08944674 9.54979207 -17.25964355 8.54257202 C-15.52520712 7.58885858 -13.78899111 6.63838379 -12.05273438 5.68798828 C-9.60218967 4.3329766 -7.17877538 2.9471014 -4.765625 1.52734375 C-2 0 -2 0 0 0 Z " fill="#6D4098" transform="translate(183,96)"/>
<path d="M0 0 C7 0 7 0 8.96875 1.765625 C9.4740625 2.58546875 9.979375 3.4053125 10.5 4.25 C11.06847656 5.14976562 11.63695312 6.04953125 12.22265625 6.9765625 C12.80917969 7.97429687 13.39570313 8.97203125 14 10 C14.98806641 11.65128906 14.98806641 11.65128906 15.99609375 13.3359375 C17.69136942 16.20801419 19.348965 19.10226511 21 22 C21.33 14.74 21.66 7.48 22 0 C24.31 0 26.62 0 29 0 C29 12.21 29 24.42 29 37 C21 37 21 37 18.8984375 34.98046875 C18.39570313 34.05878906 17.89296875 33.13710937 17.375 32.1875 C16.81425781 31.19492188 16.25351563 30.20234375 15.67578125 29.1796875 C15.12277344 28.13039062 14.56976563 27.08109375 14 26 C13.12408203 24.42605469 13.12408203 24.42605469 12.23046875 22.8203125 C10.79314712 20.22842104 9.39294067 17.61601053 8 15 C7.67 22.26 7.34 29.52 7 37 C4.69 37 2.38 37 0 37 C0 24.79 0 12.58 0 0 Z " fill="#604C73" transform="translate(210,187)"/>
<path d="M0 0 C4.32041139 2.71281646 4.32041139 2.71281646 5.6875 4.6875 C5.875 7.375 5.875 7.375 5.6875 9.6875 C3.3775 9.6875 1.0675 9.6875 -1.3125 9.6875 C-1.6425 8.6975 -1.9725 7.7075 -2.3125 6.6875 C-5.02129335 5.33310332 -7.32183268 5.62248549 -10.3125 5.6875 C-11.88523568 8.5299854 -11.88523568 8.5299854 -12.3125 11.6875 C-11.66023438 11.85765625 -11.00796875 12.0278125 -10.3359375 12.203125 C-3.88364814 13.99225538 0.88765756 15.88765756 5.6875 20.6875 C6.24748137 24.07096639 6.22888896 27.30245183 5.6875 30.6875 C2.01893728 34.86558532 -1.24441521 35.52841655 -6.5625 35.9375 C-10.93079793 35.64628014 -14.49120733 34.85634178 -18.3125 32.6875 C-21.05833491 29.3410137 -21.3125 28.0941945 -21.3125 23.6875 C-19.0025 23.6875 -16.6925 23.6875 -14.3125 23.6875 C-14.02375 24.326875 -13.735 24.96625 -13.4375 25.625 C-12.48426549 27.83956079 -12.48426549 27.83956079 -10.3125 28.6875 C-7.9795134 28.72772391 -5.64543334 28.73070247 -3.3125 28.6875 C-2.9825 27.0375 -2.6525 25.3875 -2.3125 23.6875 C-3.4675 23.11 -4.6225 22.5325 -5.8125 21.9375 C-6.53695313 21.57140625 -7.26140625 21.2053125 -8.0078125 20.828125 C-9.51118323 20.0840839 -11.0267149 19.36398802 -12.5546875 18.671875 C-13.61042969 18.18460938 -13.61042969 18.18460938 -14.6875 17.6875 C-15.33460938 17.39875 -15.98171875 17.11 -16.6484375 16.8125 C-18.78214697 15.36999219 -19.39407186 14.07273814 -20.3125 11.6875 C-20.8125 8.25 -20.8125 8.25 -20.3125 4.6875 C-15.09266356 -1.75084716 -7.4213678 -2.94054196 0 0 Z " fill="#614D74" transform="translate(317.3125,188.3125)"/>
<path d="M0 0 C7.92 0 15.84 0 24 0 C24 1.98 24 3.96 24 6 C18.39 6 12.78 6 7 6 C7 8.97 7 11.94 7 15 C11.95 15 16.9 15 22 15 C22 16.98 22 18.96 22 21 C17.05 21 12.1 21 7 21 C7 24.3 7 27.6 7 31 C12.61 31 18.22 31 24 31 C24 32.98 24 34.96 24 37 C16.08 37 8.16 37 0 37 C0 24.79 0 12.58 0 0 Z " fill="#5F4B73" transform="translate(170,187)"/>
<path d="M0 0 C7.92 0 15.84 0 24 0 C24 1.98 24 3.96 24 6 C18.39 6 12.78 6 7 6 C7 8.97 7 11.94 7 15 C11.95 15 16.9 15 22 15 C22 16.98 22 18.96 22 21 C17.05 21 12.1 21 7 21 C7 24.3 7 27.6 7 31 C12.61 31 18.22 31 24 31 C24 32.98 24 34.96 24 37 C16.08 37 8.16 37 0 37 C0 24.79 0 12.58 0 0 Z " fill="#5F4B73" transform="translate(85,187)"/>
<path d="M0 0 C2.64 0 5.28 0 8 0 C8.96023825 2.85353821 9.91824013 5.70779555 10.875 8.5625 C11.14441406 9.36236328 11.41382813 10.16222656 11.69140625 10.98632812 C13.24570557 15.63027123 14.69483177 20.27985276 16 25 C16.48919922 23.2984375 16.48919922 23.2984375 16.98828125 21.5625 C17.4295244 20.04161934 17.8709399 18.52078867 18.3125 17 C18.63250977 15.88431641 18.63250977 15.88431641 18.95898438 14.74609375 C20.41987153 9.73110801 22.11253398 4.87088004 24 0 C26.64 0 29.28 0 32 0 C31.2696922 4.32007945 29.93642838 8.3642341 28.49609375 12.48828125 C28.13198143 13.5430793 28.13198143 13.5430793 27.76051331 14.6191864 C26.98920292 16.8513521 26.21342234 19.0819338 25.4375 21.3125 C24.91181288 22.83127761 24.38641906 24.35015678 23.86132812 25.86914062 C22.57761156 29.58061144 21.28988531 33.29066879 20 37 C17.36 37 14.72 37 12 37 C10.28499487 32.21493804 8.5761682 27.42773235 6.87304688 22.63842773 C6.29271312 21.00924134 5.71069119 19.38065528 5.12695312 17.75268555 C4.28852631 15.41350324 3.45618063 13.07223407 2.625 10.73046875 C2.36251465 10.00224411 2.1000293 9.27401947 1.82958984 8.52372742 C0.78000848 5.55090347 0 3.17774382 0 0 Z " fill="#624E75" transform="translate(122,187)"/>
<path d="M0 0 C9.57 0 19.14 0 29 0 C29 1.98 29 3.96 29 6 C25.37 6 21.74 6 18 6 C18 16.23 18 26.46 18 37 C15.69 37 13.38 37 11 37 C11 26.77 11 16.54 11 6 C7.37 6 3.74 6 0 6 C0 4.02 0 2.04 0 0 Z " fill="#624F75" transform="translate(254,187)"/>
<path d="M0 0 C3.57512324 2.80212362 5.07942757 5.24758513 5.75 9.75 C5.18922496 13.67542527 3.80961051 15.76047605 1.3125 18.8125 C-1.89535018 21.16492347 -4.78399252 21.2809209 -8.6875 20.8125 C-11.75221302 19.16226991 -13.99528907 17.756424 -16.0625 14.9375 C-17.38351084 10.44606315 -17.17133625 7.71105304 -14.9375 3.5625 C-10.77715117 -1.52237079 -6.19222969 -2.73610149 0 0 Z " fill="#6C3E97" transform="translate(206.6875,86.1875)"/>
<path d="M0 0 C1.67542976 0.28604898 3.34385343 0.61781233 5 1 C5.625 2.875 5.625 2.875 6 5 C5.34 5.66 4.68 6.32 4 7 C1.375 6.625 1.375 6.625 -1 6 C-1.042721 4.33388095 -1.04063832 2.66617115 -1 1 C-0.67 0.67 -0.34 0.34 0 0 Z " fill="#F2EEF5" transform="translate(224,258)"/>
<path d="M0 0 C1.67542976 0.28604898 3.34385343 0.61781233 5 1 C5 2.65 5 4.3 5 6 C2.625 6.625 2.625 6.625 0 7 C-0.66 6.34 -1.32 5.68 -2 5 C-1.46428571 1.46428571 -1.46428571 1.46428571 0 0 Z " fill="#F0EBF4" transform="translate(199,258)"/>
<path d="M0 0 C1.67542976 0.28604898 3.34385343 0.61781233 5 1 C5 2.65 5 4.3 5 6 C2.625 6.625 2.625 6.625 0 7 C-0.66 6.34 -1.32 5.68 -2 5 C-1.46428571 1.46428571 -1.46428571 1.46428571 0 0 Z " fill="#F2EEF5" transform="translate(174,258)"/>
<path d="M0 0 C2.0625 0.4375 2.0625 0.4375 4 1 C4.33 2.65 4.66 4.3 5 6 C2.625 6.625 2.625 6.625 0 7 C-0.66 6.34 -1.32 5.68 -2 5 C-1.46428571 1.46428571 -1.46428571 1.46428571 0 0 Z " fill="#F5F2F8" transform="translate(149,258)"/>
<path d="M0 0 C2.0625 0.4375 2.0625 0.4375 4 1 C4.625 2.875 4.625 2.875 5 5 C4.34 5.66 3.68 6.32 3 7 C0.375 6.625 0.375 6.625 -2 6 C-1.125 1.125 -1.125 1.125 0 0 Z " fill="#F5F2F8" transform="translate(124,258)"/>
</svg>
